<svg id="Layer_1" data-name="Layer 1" xmlns="http://www.w3.org/2000/svg" xmlns:xlink="http://www.w3.org/1999/xlink" viewBox="0 0 1005.41 1005.38"><defs><style>.cls-1{fill:none;}.cls-2{fill:#ffd064;}.cls-3,.cls-4{fill:#ffc338;}.cls-10,.cls-11,.cls-13,.cls-3,.cls-5,.cls-6,.cls-7,.cls-8,.cls-9{fill-rule:evenodd;}.cls-5{fill:#f5b829;}.cls-6{fill:#6cf5c2;}.cls-7{fill:#00e499;}.cls-8{fill:#a79ba7;}.cls-9{fill:#837683;}.cls-10{fill:#f6dccd;}.cls-11{fill:#f1cbbc;}.cls-12{clip-path:url(#clip-path);}</style><clipPath id="clip-path" transform="translate(-174.57 -352.27)"><rect class="cls-1" x="174.62" y="352.25" width="1005.38" height="1005.38"/></clipPath></defs><path class="cls-2" d="M1164.25,855c0,3.82-.18,7.61-.55,11.4s-.94,7.56-1.68,11.29-1.67,7.43-2.77,11.07-2.39,7.22-3.84,10.75-3.08,6.95-4.88,10.31a120.4,120.4,0,0,1-12.66,19c-2.43,2.93-5,5.76-7.68,8.45s-5.5,5.25-8.44,7.66-6,4.69-9.17,6.8-6.43,4.07-9.79,5.87-6.8,3.43-10.32,4.88-7.1,2.74-10.74,3.84-7.34,2-11.08,2.78-7.49,1.3-11.28,1.67-7.59.56-11.39.56-7.62-.18-11.41-.56-7.55-.93-11.28-1.67-7.43-1.67-11.07-2.78-7.23-2.39-10.75-3.84-7-3.09-10.32-4.88-6.62-3.75-9.78-5.87a109.09,109.09,0,0,1-9.16-6.8,113.7,113.7,0,0,1-8.46-7.66c-2.69-2.69-5.25-5.52-7.66-8.45a108.27,108.27,0,0,1-6.8-9.18,110,110,0,0,1-5.87-9.78q-2.68-5-4.89-10.31c-1.45-3.53-2.74-7.11-3.84-10.75s-2-7.34-2.77-11.07-1.3-7.5-1.68-11.29-.55-7.58-.55-11.4.18-7.6.55-11.4.94-7.55,1.68-11.28,1.67-7.43,2.77-11.07,2.39-7.23,3.84-10.75,3.1-7,4.89-10.31a111.64,111.64,0,0,1,5.87-9.79,108.12,108.12,0,0,1,6.8-9.17,113.56,113.56,0,0,1,7.66-8.45q4-4,8.46-7.67a111.23,111.23,0,0,1,9.16-6.79q4.74-3.18,9.78-5.87c3.36-1.79,6.8-3.43,10.32-4.88a117.67,117.67,0,0,1,21.82-6.62c3.73-.74,7.5-1.3,11.28-1.67s7.59-.56,11.41-.56,7.6.18,11.39.56,7.55.93,11.28,1.67a117.06,117.06,0,0,1,21.82,6.62c3.52,1.45,7,3.09,10.32,4.88s6.62,3.75,9.79,5.87,6.22,4.38,9.17,6.79,5.75,5,8.44,7.67a113.82,113.82,0,0,1,7.68,8.45,112.38,112.38,0,0,1,6.78,9.17c2.13,3.17,4.08,6.43,5.88,9.79s3.42,6.8,4.88,10.31,2.74,7.1,3.84,10.75,2,7.34,2.77,11.07,1.3,7.49,1.68,11.28S1164.25,851.14,1164.25,855Z" transform="translate(-174.57 -352.27)"/><path class="cls-3" d="M1043.07,738.77a116.29,116.29,0,0,1,0,232.37c1.62.06,3.26.1,4.91.1a116.29,116.29,0,0,0,0-232.57C1046.33,738.67,1044.69,738.71,1043.07,738.77Z" transform="translate(-174.57 -352.27)"/><path class="cls-4" d="M1136.76,855c0,2.91-.13,5.82-.42,8.71a86.93,86.93,0,0,1-1.27,8.62c-.57,2.85-1.28,5.66-2.12,8.45s-1.82,5.52-2.94,8.21a84.43,84.43,0,0,1-3.73,7.87c-1.37,2.56-2.86,5.06-4.47,7.47s-3.35,4.75-5.19,7-3.81,4.4-5.86,6.46-4.2,4-6.46,5.84a86.1,86.1,0,0,1-7,5.2q-3.63,2.41-7.48,4.47c-2.57,1.37-5.19,2.62-7.88,3.74s-5.42,2.08-8.2,2.93-5.6,1.55-8.45,2.11-5.72,1-8.62,1.28-5.79.43-8.7.43-5.82-.14-8.71-.43-5.77-.71-8.63-1.28-5.66-1.27-8.45-2.11-5.51-1.83-8.2-2.93-5.31-2.37-7.88-3.74-5.05-2.86-7.47-4.47a86.26,86.26,0,0,1-7-5.2q-3.37-2.76-6.45-5.84t-5.86-6.46c-1.84-2.26-3.57-4.58-5.2-7s-3.1-4.91-4.47-7.47a84.35,84.35,0,0,1-3.72-7.87c-1.11-2.69-2.1-5.42-3-8.21s-1.55-5.6-2.1-8.45-1-5.73-1.29-8.62-.42-5.8-.42-8.71.14-5.81.42-8.7.72-5.76,1.29-8.62a86.89,86.89,0,0,1,2.1-8.45c.85-2.79,1.84-5.52,3-8.21a85.74,85.74,0,0,1,3.72-7.88c1.37-2.57,2.86-5.05,4.47-7.47s3.36-4.76,5.2-7,3.8-4.4,5.86-6.46,4.2-4,6.45-5.84a86.26,86.26,0,0,1,7-5.2q3.63-2.42,7.47-4.47t7.88-3.74c2.69-1.11,5.43-2.08,8.2-2.93s5.6-1.55,8.45-2.12a87.13,87.13,0,0,1,8.63-1.27,88.33,88.33,0,0,1,17.41,0,86.07,86.07,0,0,1,8.62,1.27c2.85.57,5.67,1.27,8.45,2.12s5.51,1.82,8.2,2.93,5.31,2.37,7.88,3.74,5.06,2.86,7.48,4.47a86.1,86.1,0,0,1,7,5.2c2.26,1.84,4.4,3.79,6.46,5.84s4,4.22,5.86,6.46,3.57,4.58,5.19,7,3.1,4.9,4.47,7.47A85.83,85.83,0,0,1,1130,821c1.12,2.69,2.09,5.42,2.94,8.21s1.55,5.6,2.12,8.45a86.93,86.93,0,0,1,1.27,8.62C1136.63,849.14,1136.76,852.05,1136.76,855Z" transform="translate(-174.57 -352.27)"/><path class="cls-5" d="M969.77,855a88.81,88.81,0,0,1,83.5-88.64c-1.75-.1-3.52-.15-5.29-.15a88.8,88.8,0,1,0,0,177.59c1.77,0,3.54,0,5.29-.16A88.79,88.79,0,0,1,969.77,855Z" transform="translate(-174.57 -352.27)"/><path class="cls-2" d="M793.57,484.26c0,3.82-.19,7.61-.56,11.4s-.94,7.56-1.68,11.29A114.06,114.06,0,0,1,788.56,518c-1.1,3.64-2.39,7.22-3.84,10.75A117.7,117.7,0,0,1,774,548.86c-2.11,3.18-4.38,6.23-6.79,9.18s-5,5.76-7.68,8.45-5.5,5.25-8.44,7.66-6,4.69-9.17,6.8-6.43,4.07-9.79,5.87-6.8,3.43-10.32,4.88A113.37,113.37,0,0,1,711,595.54c-3.64,1.11-7.34,2-11.07,2.78s-7.5,1.3-11.29,1.67-7.59.56-11.39.56-7.62-.18-11.41-.56-7.55-.93-11.28-1.67-7.43-1.67-11.07-2.78-7.22-2.38-10.75-3.84-7-3.09-10.32-4.88-6.62-3.75-9.78-5.87a110.75,110.75,0,0,1-9.16-6.8,113.7,113.7,0,0,1-8.46-7.66c-2.69-2.69-5.25-5.52-7.66-8.45a117.76,117.76,0,0,1-12.67-19c-1.79-3.35-3.42-6.8-4.89-10.31S567.11,521.66,566,518s-2-7.34-2.77-11.07-1.3-7.5-1.68-11.29-.55-7.58-.55-11.4.18-7.6.55-11.4.94-7.55,1.68-11.28,1.67-7.43,2.77-11.07,2.39-7.23,3.84-10.75,3.1-7,4.89-10.31a113.3,113.3,0,0,1,5.87-9.8,111.86,111.86,0,0,1,6.8-9.16,113.56,113.56,0,0,1,7.66-8.45q4-4,8.46-7.67a113,113,0,0,1,9.16-6.79c3.16-2.12,6.43-4.07,9.78-5.87a113,113,0,0,1,10.32-4.88c3.53-1.46,7.1-2.74,10.75-3.84a113.39,113.39,0,0,1,11.07-2.78c3.73-.74,7.5-1.3,11.28-1.67s7.59-.56,11.41-.56,7.6.18,11.39.56,7.55.93,11.29,1.67a117.27,117.27,0,0,1,21.81,6.62,113,113,0,0,1,10.32,4.88q5,2.7,9.79,5.87t9.17,6.79q4.41,3.63,8.44,7.67a113.82,113.82,0,0,1,7.68,8.45q3.62,4.41,6.79,9.16t5.86,9.8a112.87,112.87,0,0,1,4.89,10.31c1.45,3.52,2.74,7.11,3.84,10.75a114.06,114.06,0,0,1,2.77,11.07q1.11,5.6,1.68,11.28C793.38,476.66,793.57,480.45,793.57,484.26Z" transform="translate(-174.57 -352.27)"/><path class="cls-3" d="M672.38,368.08a116.29,116.29,0,0,1,0,232.37c1.62.06,3.26.1,4.91.1a116.29,116.29,0,0,0,0-232.57C675.64,368,674,368,672.38,368.08Z" transform="translate(-174.57 -352.27)"/><path class="cls-4" d="M684.62,395.76c2.9.24,5.77.63,8.63,1.15s5.7,1.19,8.49,2,5.55,1.73,8.25,2.8,5.35,2.28,7.94,3.6,5.09,2.79,7.54,4.37a86.23,86.23,0,0,1,7.08,5.09,85,85,0,0,1,6.54,5.74q3.13,3,5.95,6.37a85,85,0,0,1,5.3,6.92c1.66,2.38,3.19,4.86,4.61,7.4s2.69,5.14,3.84,7.82,2.18,5.38,3.07,8.16,1.63,5.57,2.24,8.41a87,87,0,0,1,2,17.3,84.3,84.3,0,0,1-.29,8.71,86.34,86.34,0,0,1-1.14,8.63c-.52,2.86-1.18,5.7-2,8.49a85.29,85.29,0,0,1-2.82,8.25,84.38,84.38,0,0,1-3.6,7.94q-2,3.87-4.36,7.54t-5.08,7.08a85,85,0,0,1-5.74,6.54q-3,3.13-6.37,6t-6.92,5.29q-3.6,2.49-7.4,4.6a87.14,87.14,0,0,1-7.82,3.85c-2.67,1.15-5.4,2.17-8.16,3.07s-5.58,1.63-8.42,2.24a86.12,86.12,0,0,1-8.6,1.42c-2.88.33-5.79.51-8.69.56s-5.82,0-8.71-.29-5.79-.62-8.65-1.14-5.68-1.19-8.48-2-5.54-1.74-8.24-2.81-5.35-2.27-7.94-3.6-5.11-2.79-7.54-4.37a86.12,86.12,0,0,1-7.08-5.08,87,87,0,0,1-6.55-5.74q-3.13-3-6-6.38t-5.31-6.91c-1.65-2.4-3.17-4.86-4.59-7.4s-2.69-5.15-3.84-7.82a85.28,85.28,0,0,1-3.07-8.16,84.18,84.18,0,0,1-2.24-8.42,86.12,86.12,0,0,1-1.42-8.6,87,87,0,0,1-.56-8.7c0-2.9,0-5.81.29-8.7a86.54,86.54,0,0,1,1.14-8.64c.52-2.87,1.19-5.69,2-8.49s1.73-5.54,2.8-8.24,2.28-5.36,3.61-7.94a83.39,83.39,0,0,1,4.37-7.54,86,86,0,0,1,5.07-7.08q2.72-3.42,5.75-6.54a85.24,85.24,0,0,1,6.36-6c2.22-1.89,4.54-3.64,6.92-5.31s4.86-3.17,7.41-4.59,5.15-2.69,7.82-3.84a83.31,83.31,0,0,1,8.16-3.07c2.76-.88,5.57-1.63,8.41-2.25s5.71-1.08,8.6-1.41,5.79-.52,8.69-.57S681.72,395.53,684.62,395.76Z" transform="translate(-174.57 -352.27)"/><path class="cls-5" d="M599.08,484.26a88.81,88.81,0,0,1,83.5-88.64c-1.75-.1-3.52-.15-5.29-.15a88.8,88.8,0,1,0,0,177.59c1.77,0,3.54,0,5.29-.16A88.79,88.79,0,0,1,599.08,484.26Z" transform="translate(-174.57 -352.27)"/><path class="cls-2" d="M422.88,855c0,3.82-.19,7.61-.56,11.4s-.94,7.56-1.67,11.29-1.68,7.43-2.78,11.07-2.39,7.22-3.84,10.75-3.08,6.95-4.89,10.31a112.36,112.36,0,0,1-5.86,9.78c-2.11,3.18-4.38,6.23-6.79,9.18s-5,5.76-7.67,8.45-5.51,5.25-8.45,7.66-6,4.69-9.17,6.8-6.43,4.07-9.79,5.87-6.8,3.43-10.32,4.88-7.1,2.74-10.75,3.84-7.33,2-11.06,2.78-7.5,1.3-11.29,1.67-7.59.56-11.39.56-7.61-.18-11.41-.56-7.55-.93-11.28-1.67-7.43-1.67-11.07-2.78-7.22-2.39-10.75-3.84-7-3.09-10.32-4.88-6.62-3.75-9.78-5.87a112.62,112.62,0,0,1-9.17-6.8q-4.41-3.62-8.45-7.66c-2.69-2.69-5.25-5.52-7.66-8.45a110.48,110.48,0,0,1-6.8-9.18,112.46,112.46,0,0,1-5.87-9.78c-1.79-3.36-3.43-6.8-4.88-10.31s-2.74-7.11-3.85-10.75-2-7.34-2.77-11.07-1.3-7.5-1.68-11.29-.55-7.58-.55-11.4.18-7.6.55-11.4.94-7.55,1.68-11.28,1.67-7.43,2.77-11.07,2.39-7.23,3.85-10.75,3.09-7,4.88-10.31,3.75-6.62,5.87-9.79a110.32,110.32,0,0,1,6.8-9.17,113.56,113.56,0,0,1,7.66-8.45q4-4,8.45-7.67t9.17-6.79c3.16-2.12,6.43-4.07,9.78-5.87s6.8-3.43,10.32-4.88,7.1-2.74,10.75-3.84a113.39,113.39,0,0,1,11.07-2.78c3.73-.74,7.5-1.3,11.28-1.67s7.59-.56,11.41-.56,7.6.18,11.39.56,7.55.93,11.29,1.67a117.88,117.88,0,0,1,21.81,6.62c3.52,1.45,7,3.09,10.32,4.88s6.62,3.75,9.79,5.87,6.22,4.38,9.17,6.79,5.75,5,8.45,7.67,5.24,5.5,7.67,8.45,4.68,6,6.79,9.17a114,114,0,0,1,5.86,9.79A112.87,112.87,0,0,1,414,810.45c1.45,3.52,2.74,7.1,3.84,10.75s2,7.34,2.78,11.07,1.29,7.49,1.67,11.28S422.88,851.14,422.88,855Z" transform="translate(-174.57 -352.27)"/><path class="cls-3" d="M301.69,738.77a116.29,116.29,0,0,1,0,232.37c1.62.06,3.26.1,4.9.1a116.29,116.29,0,1,0,0-232.57C305,738.67,303.31,738.71,301.69,738.77Z" transform="translate(-174.57 -352.27)"/><path class="cls-4" d="M395.38,855c0,2.91-.13,5.82-.42,8.71s-.71,5.76-1.27,8.62-1.27,5.66-2.12,8.45-1.82,5.52-2.94,8.21a87.05,87.05,0,0,1-3.73,7.87c-1.37,2.56-2.86,5.06-4.47,7.47s-3.35,4.75-5.19,7-3.81,4.4-5.86,6.46-4.2,4-6.46,5.84a86.1,86.1,0,0,1-7,5.2q-3.63,2.41-7.48,4.47c-2.57,1.37-5.19,2.62-7.88,3.74s-5.42,2.08-8.2,2.93-5.6,1.55-8.45,2.11-5.74,1-8.62,1.28-5.79.43-8.7.43-5.82-.14-8.71-.43-5.77-.71-8.63-1.28-5.66-1.27-8.44-2.11-5.52-1.83-8.21-2.93-5.31-2.37-7.88-3.74-5.05-2.86-7.47-4.47a86.26,86.26,0,0,1-7-5.2q-3.36-2.76-6.46-5.84T238,911.29c-1.85-2.26-3.57-4.58-5.2-7s-3.1-4.91-4.47-7.47a87.05,87.05,0,0,1-3.73-7.87c-1.1-2.69-2.09-5.42-2.93-8.21a85.51,85.51,0,0,1-2.11-8.45q-.85-4.29-1.29-8.62c-.28-2.89-.42-5.8-.42-8.71s.14-5.81.42-8.7.72-5.76,1.29-8.62a84.13,84.13,0,0,1,2.11-8.45c.84-2.79,1.83-5.52,2.93-8.21s2.36-5.31,3.73-7.88,2.86-5.05,4.47-7.47,3.35-4.76,5.2-7,3.8-4.4,5.85-6.46,4.22-4,6.46-5.84a86.26,86.26,0,0,1,7-5.2q3.63-2.42,7.47-4.47c2.57-1.37,5.19-2.62,7.88-3.74s5.42-2.08,8.21-2.93,5.6-1.55,8.44-2.12a87.13,87.13,0,0,1,8.63-1.27,88.33,88.33,0,0,1,17.41,0c2.88.27,5.76.71,8.62,1.27s5.67,1.27,8.45,2.12,5.51,1.82,8.2,2.93,5.31,2.37,7.88,3.74,5.06,2.86,7.48,4.47a86.1,86.1,0,0,1,7,5.2c2.26,1.84,4.4,3.79,6.46,5.84s4,4.22,5.86,6.46,3.56,4.58,5.19,7,3.1,4.9,4.47,7.47,2.62,5.19,3.73,7.88,2.09,5.42,2.94,8.21a87,87,0,0,1,2.12,8.45c.56,2.86,1,5.73,1.27,8.62S395.38,852.05,395.38,855Z" transform="translate(-174.57 -352.27)"/><path class="cls-5" d="M228.39,855a88.81,88.81,0,0,1,83.5-88.64c-1.75-.1-3.52-.15-5.29-.15a88.8,88.8,0,1,0,0,177.59c1.77,0,3.54,0,5.29-.16A88.79,88.79,0,0,1,228.39,855Z" transform="translate(-174.57 -352.27)"/><path class="cls-6" d="M756.38,1098.46v227.37a16.15,16.15,0,0,1-16.11,16.11h-126a16.15,16.15,0,0,1-16.11-16.11V1098.46c-32,0-58.15-25-58.15-55.56V876.25c0-30.57,27.28-47.63,58.15-55.58,53.53-13.76,106.22-12.89,158.2,0,30.94,7.68,58.14,25,58.14,55.58V1042.9C814.53,1073.46,788.37,1098.46,756.38,1098.46Z" transform="translate(-174.57 -352.27)"/><path class="cls-7" d="M740.27,1098.46c32,0,58.16-25,58.16-55.56V876.23c0-30.54-27.2-47.88-58.16-55.56a333.23,333.23,0,0,0-71.75-9.89,328.78,328.78,0,0,1,87.86,9.89c31,7.68,58.15,25,58.15,55.56V1042.9c0,30.56-26.16,55.56-58.15,55.56Z" transform="translate(-174.57 -352.27)"/><path class="cls-8" d="M756.38,1098.46v227.37a16.15,16.15,0,0,1-16.11,16.11h-126a16.15,16.15,0,0,1-16.11-16.11V1098.46Z" transform="translate(-174.57 -352.27)"/><path class="cls-9" d="M756.38,1098.46v227.37a16.15,16.15,0,0,1-16.11,16.11H724.16a16.15,16.15,0,0,0,16.11-16.11V1098.46Z" transform="translate(-174.57 -352.27)"/><path class="cls-10" d="M677.27,657.29c33.73,0,61.06,19.22,61.06,63.54S711,801.06,677.27,801.06s-61-35.93-61-80.23S643.57,657.29,677.27,657.29Z" transform="translate(-174.57 -352.27)"/><path class="cls-11" d="M677.27,657.29c33.73,0,61.06,19.22,61.06,63.54S711,801.06,677.27,801.06a47.77,47.77,0,0,1-8-.69c29.9-5.19,53-38.83,53-79.54s-23.09-60.26-53-63.15Q673.19,657.29,677.27,657.29Z" transform="translate(-174.57 -352.27)"/><g class="cls-12"><path class="cls-13" d="M798.87,876.22c0-25.09-29-36-46.23-40.31-50.86-12.62-101.52-12.65-150.54,0-21.12,5.44-46.32,16.85-46.32,40.35v163.14c0,16.78,11,31.15,26.68,37V930.5a15.76,15.76,0,0,1,31.51,0v395.73h49.84V1157.87a15.7,15.7,0,1,1,31.39,0v168.36h45.49V930.5a15.71,15.71,0,1,1,31.41,0v145.88c15.66-5.87,26.77-20.24,26.77-37ZM631.93,720.8c0,35,20.75,64.52,45.39,64.52s45.31-29.55,45.31-64.52c0-39.52-24.64-47.81-45.31-47.81S631.93,681.28,631.93,720.8ZM830.28,876.22v163.14c0,34.1-24.92,62.68-58.18,69.65v232.93a15.7,15.7,0,0,1-15.66,15.71H598.21a15.77,15.77,0,0,1-15.75-15.72V1109c-33.16-7-58.08-35.55-58.08-69.65V876.22c0-33.55,25.48-59.34,69.94-70.79a327.5,327.5,0,0,1,37.52-7.34C613,780.6,600.52,752.48,600.52,720.8S613,670.71,623.41,661c13.53-12.68,32.14-19.38,53.91-19.38s40.31,6.7,53.92,19.38C741.61,670.71,754,689,754,720.8s-12.43,59.93-31.41,77.41a352.08,352.08,0,0,1,37.52,7.2C804.7,816.45,830.28,842.27,830.28,876.22ZM679.92,468.33c-19.92-3.27-20.28-10-20.38-12.19-.46-9.07,9.36-12,12.41-12.68,6.86-1.55,19.92-.89,25.11,11.56a15.72,15.72,0,0,0,29-12.18A49.71,49.71,0,0,0,693,413.54v-2.86a15.7,15.7,0,1,0-31.4,0v3c-21.13,6.17-34.38,23.45-33.35,44,.55,12.8,7.51,35.25,46.6,41.66,22.69,3.73,23.62,11,24,14.05s-.46,4.54-1.47,5.68c-3.24,3.72-10.94,6.45-18.9,6.62-9,.29-20.57-3.3-23.17-13.94a15.7,15.7,0,1,0-30.47,7.6c4.44,17.87,18.44,31,36.78,35.78v2.73a15.7,15.7,0,1,0,31.4,0V555.4c11.49-2.63,21.59-8.17,28.16-15.77,7.14-8.32,10.19-18.7,8.9-30C727.26,487.23,710.5,473.34,679.92,468.33Zm-389,313v3c-21.11,6.19-34.46,23.47-33.44,44,.66,12.8,7.51,35.25,46.69,41.67,22.71,3.72,23.63,11,24,14a6.67,6.67,0,0,1-1.49,5.69c-3.23,3.71-11,6.43-18.89,6.62-9.08.26-20.57-3.31-23.25-14A15.71,15.71,0,0,0,254.05,890c4.45,17.88,18.44,31,36.87,35.78v2.73a15.71,15.71,0,1,0,31.41,0V926.1c11.49-2.65,21.49-8.17,28.07-15.77,7.23-8.33,10.28-18.72,8.9-30.05-2.69-22.36-19.55-36.24-50-41.25-19.91-3.28-20.27-10-20.37-12.19-.46-9.08,9.36-12,12.41-12.69,6.86-1.57,19.83-.89,25.1,11.56a15.68,15.68,0,1,0,28.91-12.17,49.49,49.49,0,0,0-33-29.29v-2.89a15.71,15.71,0,1,0-31.41,0ZM1148.58,855A100.61,100.61,0,1,0,1048,955.53,100.7,100.7,0,0,0,1148.58,855ZM777.84,484.26A100.56,100.56,0,1,1,677.32,383.68,100.66,100.66,0,0,1,777.84,484.26ZM306.59,754.38A100.58,100.58,0,1,1,206.06,855,100.7,100.7,0,0,1,306.59,754.38ZM1180,855a132.13,132.13,0,0,1-132,132c-2.5,0-4.91-.07-7.41-.22A387.3,387.3,0,0,1,885.86,1180.3a15.91,15.91,0,0,1-8.53,2.5,15.71,15.71,0,0,1-8.52-28.92,356.27,356.27,0,0,0,140.35-172.76A132.21,132.21,0,0,1,916,855c0-59.26,39.27-109.53,93.18-126.16A356.11,356.11,0,0,0,803.5,523.1c-16.67,53.89-67,93.16-126.16,93.16a132.21,132.21,0,0,1-126.19-93.14A356.16,356.16,0,0,0,345.49,728.79c53.83,16.63,93.11,66.9,93.11,126.16a132.22,132.22,0,0,1-93.19,126.17,356.86,356.86,0,0,0,140.34,172.76,15.7,15.7,0,0,1-8.52,28.92,15.39,15.39,0,0,1-8.43-2.5A388.06,388.06,0,0,1,314,986.73c-2.41.15-4.91.22-7.41.22-72.72,0-132-59.2-132-132s59.3-132,132-132c2.5,0,5,.09,7.41.22A387.61,387.61,0,0,1,545.51,491.66c-.1-2.44-.2-4.9-.2-7.4,0-72.79,59.2-132,132-132s132,59.2,132,132c0,2.5-.08,5-.27,7.4a387.43,387.43,0,0,1,231.51,231.52c2.5-.15,4.91-.22,7.41-.22A132.12,132.12,0,0,1,1180,855Zm-79.3,25.33c1.4,11.33-1.66,21.72-8.9,30.05-6.57,7.6-16.58,13.14-28.06,15.77v2.45a15.7,15.7,0,1,1-31.4,0v-2.73c-18.44-4.81-32.43-17.9-36.87-35.78a15.7,15.7,0,0,1,30.47-7.61c2.69,10.65,14.18,14.22,23.16,14,8-.19,15.75-2.91,18.9-6.62,1-1.14,1.85-2.62,1.49-5.69s-1.21-10.31-23.9-14c-39.19-6.42-46-28.87-46.69-41.67-1-20.52,12.31-37.81,33.44-44v-3a15.7,15.7,0,1,1,31.4,0v2.89a49.74,49.74,0,0,1,33,29.29,15.72,15.72,0,0,1-29,12.18c-5.19-12.44-18.24-13.14-25-11.56-3.06.67-12.88,3.61-12.41,12.68.09,2.22.37,8.92,20.38,12.19C1081.14,844,1098,857.92,1100.69,880.28Z" transform="translate(-174.57 -352.27)"/></g></svg>